<?xml version="1.0" encoding="utf-8"?>
<!-- Generator: Adobe Illustrator 19.0.0, SVG Export Plug-In . SVG Version: 6.00 Build 0)  -->
<svg version="1.1" id="Layer_1" xmlns="http://www.w3.org/2000/svg" xmlns:xlink="http://www.w3.org/1999/xlink" x="0px" y="0px"
	 viewBox="-278 376 42 42" style="enable-background:new -278 376 42 42;" xml:space="preserve">
<path d="M-257,418c-11.6,0-21-9.4-21-21s9.4-21,21-21s21,9.4,21,21S-245.4,418-257,418z M-245.4,412c-0.2-0.2-0.4-0.5-0.5-0.7
	c-0.3-0.4-0.6-0.8-0.8-1.2c0,0-1.4-1.9-6.3-2.1c-1.7,0-3-1.3-3-3.1l0-0.9c0-0.1,0,0.1,0,0v-1l1-1c0.7-0.3,1.7-0.9,2.4-1.5l0.1-0.1
	c0.6-0.4,1.4-1.1,1.5-1.4l0-0.4c0.4-1.9,1-5.4,1-6.6c0-4.7-2.3-7-7-7c-4.8,0-7,2.2-7,7c0,1.2,0.6,4.7,1,6.6l0,0.4
	c0.1,0.3,0.8,1.1,1.4,1.5l0.1,0.1c0.8,0.6,1.7,1.2,2.5,1.5l1,1v1c0,0.1,0-0.1,0,0l0,0.9c0,1.8-1.2,3.1-2.9,3.1c0,0,0,0,0,0
	c-5,0.2-6.4,2.1-6.4,2.1c-0.3,0.4-0.5,0.8-0.8,1.2c-0.2,0.2-0.4,0.5-0.5,0.7c3.2,2.5,7.2,4,11.6,4S-248.6,414.5-245.4,412z
	 M-257,378c-10.5,0-19,8.5-19,19c0,5.4,2.3,10.2,5.9,13.7c0.4-0.6,0.8-1.1,1.1-1.7c0,0,1.7-2.7,8-3c0.6,0,1-0.4,1-1.1h0
	c0-0.5,0-0.9,0-0.9c0-0.1,0-0.2,0-0.4c-0.7-0.3-1.6-0.8-2.5-1.5c0,0-2.4-1.5-2.4-3.1c0,0-1-5.1-1-7c0-4.6,2-9,9-9c6.9,0,9,4.4,9,9
	c0,1.8-1,7-1,7c0,1.6-2.4,3.1-2.4,3.1c-1,0.7-1.8,1.2-2.5,1.5c0,0.1,0,0.2,0,0.3c0,0,0,0.4,0,0.9h0c0,0.6,0.3,1.1,1,1.1
	c6.4,0.3,8,3,8,3c0.4,0.6,0.8,1.1,1.1,1.7c3.6-3.5,5.9-8.3,5.9-13.7C-238,386.5-246.5,378-257,378z"/>
</svg>
