<?xml version="1.0" ?><svg id="Layer_1" style="enable-background:new 0 0 100 100;" version="1.1" viewBox="0 0 100 100" xml:space="preserve" xmlns="http://www.w3.org/2000/svg" xmlns:xlink="http://www.w3.org/1999/xlink"><path d="M79.395,3c-0.001,0-0.002,0-0.003,0c-0.001,0-0.001,0-0.002,0H26.5c-6.403,0-11.786,4.735-12.811,10.885  C8.25,14.236,3,16.179,3,20c0,3.777,5.129,5.72,10.5,6.103v7.793C8.129,34.28,3,36.223,3,40s5.129,5.72,10.5,6.103v7.793  C8.129,54.28,3,56.223,3,60s5.129,5.72,10.5,6.103v7.793C8.129,74.28,3,76.223,3,80c0,3.821,5.25,5.764,10.689,6.115  C14.714,92.265,20.097,97,26.5,97H84c7.168,0,13-5.832,13-13V20.61c0,0,0-0.001,0-0.001c0-0.001,0-0.002,0-0.003  C97,10.898,89.103,3,79.395,3z M93,20.606c0,7.502-6.104,13.606-13.605,13.606c-2.835,0-5.469-0.874-7.651-2.363  c-0.002-0.002-0.005-0.003-0.007-0.005c-3.588-2.452-5.949-6.573-5.949-11.238C65.788,13.104,71.892,7,79.395,7  C86.896,7,93,13.104,93,20.606z M70.62,39.89c0,3.778-2.198,6.97-4.8,6.97c-2.603,0-4.801-3.192-4.801-6.97  c0-3.772,2.198-6.96,4.801-6.96c0.459,0,0.901,0.111,1.326,0.297c0.603,0.586,1.252,1.122,1.934,1.617  C70.054,36.17,70.62,37.99,70.62,39.89z M7.031,20c0.45-0.688,3.339-2.179,8.469-2.179s8.019,1.491,8.469,2.179  c-0.45,0.688-3.339,2.179-8.469,2.179S7.481,20.688,7.031,20z M7.031,40c0.45-0.688,3.339-2.179,8.469-2.179  s8.019,1.491,8.469,2.179c-0.45,0.688-3.339,2.179-8.469,2.179S7.481,40.688,7.031,40z M7.031,60  c0.45-0.688,3.339-2.179,8.469-2.179s8.019,1.491,8.469,2.179c-0.45,0.688-3.339,2.179-8.469,2.179S7.481,60.688,7.031,60z   M7.031,80c0.45-0.688,3.339-2.179,8.469-2.179s8.019,1.491,8.469,2.179c-0.45,0.688-3.339,2.179-8.469,2.179S7.481,80.688,7.031,80  z M93,84c0,4.962-4.037,9-9,9H26.5c-4.214,0-7.793-2.962-8.747-6.912C23.031,85.662,28,83.717,28,80c0-3.777-5.129-5.72-10.5-6.103  v-7.793C22.871,65.72,28,63.777,28,60s-5.129-5.72-10.5-6.103v-7.793C22.871,45.72,28,43.777,28,40s-5.129-5.72-10.5-6.103v-7.793  C22.871,25.72,28,23.777,28,20c0-3.717-4.969-5.662-10.247-6.088C18.707,9.962,22.286,7,26.5,7h41.736  c-3.933,3.232-6.448,8.13-6.448,13.606c0,3.105,0.815,6.021,2.232,8.556C60.028,30.2,57.02,34.615,57.02,39.89  c0,6.049,3.948,10.97,8.801,10.97s8.8-4.921,8.8-10.97c0-0.822-0.079-1.627-0.219-2.41c1.585,0.47,3.258,0.732,4.993,0.732  c5.476,0,10.374-2.514,13.605-6.447V84z"/><path d="M77.395,12.856v5.75h-5.75c-1.104,0-2,0.896-2,2s0.896,2,2,2h5.75v5.75c0,1.104,0.896,2,2,2s2-0.896,2-2v-5.75h5.75  c1.104,0,2-0.896,2-2s-0.896-2-2-2h-5.75v-5.75c0-1.104-0.896-2-2-2S77.395,11.751,77.395,12.856z"/><path d="M44.955,54.079c4.852,0,8.798-4.919,8.798-10.966s-3.946-10.967-8.798-10.967s-8.799,4.92-8.799,10.967  S40.104,54.079,44.955,54.079z M44.955,36.146c2.601,0,4.798,3.19,4.798,6.967s-2.197,6.966-4.798,6.966  c-2.602,0-4.799-3.19-4.799-6.966S42.354,36.146,44.955,36.146z"/><path d="M76.269,48.483c-0.452-0.371-1.048-0.525-1.619-0.422c-0.576,0.103-1.078,0.452-1.374,0.956  c-1.759,2.995-4.546,4.783-7.455,4.783c-2.955,0-5.768-1.839-7.523-4.92c-0.289-0.507-0.785-0.863-1.358-0.974  c-0.573-0.11-1.166,0.035-1.623,0.398c-2.152,1.71-3.84,3.926-4.922,6.427c-1.576,1.453-3.476,2.285-5.439,2.285  c-2.956,0-5.77-1.837-7.526-4.916c-0.29-0.507-0.786-0.862-1.359-0.972c-0.57-0.111-1.165,0.035-1.622,0.398  c-4.013,3.188-6.314,7.952-6.314,13.069v4.476c0,1.104,0.896,2,2,2h29.366c1.104,0,2-0.896,2-2V67.85H80.37c1.104,0,2-0.896,2-2  v-4.47C82.37,56.364,80.146,51.664,76.269,48.483z M57.499,67.073H32.133v-2.476c0-3.159,1.154-6.142,3.224-8.45  c2.485,3.086,5.939,4.871,9.599,4.871c3.085,0,6.033-1.284,8.378-3.543c0.073-0.063,0.143-0.129,0.207-0.202  c0.304-0.305,0.6-0.622,0.881-0.96c1.976,2.286,3.078,5.209,3.078,8.285V67.073z M78.37,63.85H61.458  c-0.138-3.112-1.131-6.071-2.846-8.598C60.73,56.883,63.22,57.8,65.82,57.8c3.587,0,6.992-1.723,9.469-4.708  c1.979,2.285,3.081,5.208,3.081,8.288V63.85z"/></svg>