<?xml version="1.0" encoding="utf-8"?>
<!-- Generator: Adobe Illustrator 19.0.0, SVG Export Plug-In . SVG Version: 6.00 Build 0)  -->
<svg version="1.1" id="Group_1_1_" xmlns="http://www.w3.org/2000/svg" xmlns:xlink="http://www.w3.org/1999/xlink" x="0px" y="0px"
	 viewBox="734.7 263.8 1575.9 252.4" style="enable-background:new 734.7 263.8 1575.9 252.4;" xml:space="preserve">
<style type="text/css">
	.st0{fill:#FFFFFF;}
	.st1{fill:#B3995D;}
</style>
<g id="LiberSoft">
	<g>
		<path class="st0" d="M1158.3,327.6h-0.7c-0.2-3.9-1.6-7.3-4.4-10c-2.8-2.8-6.1-4.2-10-4.2h-2.9v-2.3h18L1158.3,327.6L1158.3,327.6
			z M1158.3,452v16.4h-18v-2.3h2.9c3.9,0,7.3-1.4,10-4.2c2.8-2.8,4.2-6.1,4.4-10H1158.3z M1172.2,311.3v157.2h-14.6V311.3H1172.2z
			 M1171.6,327.6v-16.4h18v2.3c-0.2,0-1.1,0-2.9,0c-3.9,0-7.3,1.4-10,4.2c-2.8,2.8-4.2,6.1-4.4,10H1171.6z M1232.9,461.5v7h-61.2v-7
			H1232.9z M1246.6,432l-13,36.3h-37.3l8.1-7c7.9,0,14.4-1.2,19.4-3.7c5-2.4,9.1-5.9,12.2-10.5c3.1-4.5,5.9-9.6,8.3-15.3L1246.6,432
			L1246.6,432z"/>
		<path class="st0" d="M1293.5,348.1h-0.7c-0.2-3.4-1.7-6.3-4.6-8.6c-2.9-2.4-6.5-3.5-10.7-3.5c-0.2,0-1.2,0-3.1,0v-2.3h19
			L1293.5,348.1L1293.5,348.1z M1293.5,454.1v14.3h-19v-2.3h3.1c4.2,0,7.8-1.2,10.7-3.6c2.9-2.4,4.5-5.2,4.6-8.6L1293.5,454.1
			L1293.5,454.1z M1306.9,333.8v134.7h-14.2V333.8H1306.9z M1306.3,348.1v-14.3h19l-0.3,2.3h-2.9c-4.2,0-7.8,1.1-10.7,3.5
			c-2.9,2.4-4.5,5.2-4.6,8.6L1306.3,348.1L1306.3,348.1z M1306.3,454.1h0.7c0.2,3.3,1.7,6.1,4.6,8.6c2.9,2.4,6.5,3.6,10.7,3.6h2.9
			l0.3,2.3h-19L1306.3,454.1L1306.3,454.1z"/>
		<path class="st0" d="M1375.7,348.1h-0.7c-0.2-3.6-1.5-6.6-3.9-8.7c-2.4-2.3-5.7-3.4-9.5-3.4h-2.7v-2.3h16.9V348.1z M1375.7,454.1
			v14.3h-16.9v-2.3h2.7c3.9,0,7.1-1.2,9.5-3.6c2.4-2.4,3.8-5.2,3.9-8.6L1375.7,454.1L1375.7,454.1z M1389.1,333.8v134.7H1375V333.8
			H1389.1z M1404.6,333.8c4,0,8.7,0.3,14.1,1.1c5.3,0.8,10.5,2.3,15.4,4.5c5,2.3,9.1,5.6,12.3,10.1c3.3,4.5,5,10.5,5,18
			c0,4.5-1.2,8.6-3.6,12.6c-2.4,3.9-5.5,7.2-9.2,9.8c-3.8,2.6-7.7,4.5-11.9,5.5c7.3,0.8,13.8,2.8,19.4,6.2c5.6,3.4,10,7.6,13.4,12.7
			c3.3,5.1,5,10.7,5,16.6c0,7.3-1.6,13.5-4.6,18.3c-3.1,4.9-7.1,8.7-12,11.5c-5,2.9-10.3,4.9-16.2,6c-5.9,1.2-11.5,1.8-17,1.8h-27.4
			c0.2-2.3,0.3-4.5,0.3-6.7h26.9c6.5,0,12.2-1,17.4-3.2c5.2-2.2,9.3-5.6,12.2-10.2c3-4.6,4.5-10.5,4.5-17.5c0-7.2-1.6-13-4.7-17.4
			c-3.1-4.5-7.3-7.8-12.3-10.1c-5.1-2.4-10.7-3.9-16.9-4.7s-12.3-1.2-18.4-1.2v-2.3c4,0,8.4-0.3,13-0.9c4.6-0.6,8.9-1.8,12.9-3.7
			c3.9-1.8,7.3-4.6,9.8-8.3s3.8-8.6,3.8-14.7c0-9.4-2.8-16.2-8.3-20.5c-5.5-4.3-13.2-6.4-22.9-6.4h-24.5c0-0.2-0.2-0.8-0.5-1.9
			c-0.3-1.1-0.9-2.7-1.5-4.8h26.6V333.8z"/>
		<path class="st0" d="M1512.4,347.9h-0.4c-0.2-3.4-1.4-6.3-3.8-8.6c-2.4-2.3-5.5-3.4-9.2-3.4h-3.1v-2.3h19.6L1512.4,347.9z
			 M1512.4,454.1l2.9,14.3h-19.6v-2.3h3.1c3.8,0,6.8-1.2,9.2-3.6c2.4-2.4,3.7-5.2,3.8-8.6L1512.4,454.1L1512.4,454.1z M1526.3,333.8
			v134.7H1512V333.8H1526.3z M1586.5,333.8v7h-60.6v-7H1586.5z M1576.2,397.7v6.7h-50.3v-6.7H1576.2z M1586.8,461.5l-0.4,7H1526v-7
			H1586.8z M1599.3,436.3l-12.3,32.1h-34.2l7.6-7c7.5,0,13.5-1,18.1-3.2s8.3-5.2,11.1-9c2.9-3.8,5.3-8.1,7.4-12.9H1599.3
			L1599.3,436.3z M1586.5,330.2v5.9l-25.6-2.3c4.6,0,9.6-0.4,14.9-1.2C1581,331.7,1584.6,330.9,1586.5,330.2z M1576.2,385.4v12.8
			h-11.7v-0.4c3.1,0,5.5-1,7-2.8c1.5-1.8,2.3-4.1,2.3-6.6v-2.9H1576.2z M1576.2,404v12.8h-2.4v-2.9c0-2.5-0.8-4.7-2.3-6.6
			c-1.5-1.8-3.8-2.8-7-2.8V404H1576.2z M1586.5,340.1v15.5h-2.4v-3.4c0-3.1-1-5.9-3.1-8.1c-2-2.3-4.7-3.4-8.2-3.4v-0.7h13.7V340.1z"
			/>
		<path class="st0" d="M1641.5,347.9h-0.4c-0.2-3.4-1.4-6.3-3.8-8.6c-2.4-2.3-5.4-3.4-9-3.4h-3.1v-2.3h19L1641.5,347.9z
			 M1641.5,454.1l2.7,14.3h-19v-2.3h3.1c3.6,0,6.6-1.2,9-3.6c2.4-2.4,3.7-5.2,3.8-8.6L1641.5,454.1L1641.5,454.1z M1655.2,333.8
			v134.7h-14.3V333.8H1655.2z M1654.5,454.1h0.7c0.2,3.3,1.4,6.1,3.8,8.6c2.4,2.4,5.4,3.6,9,3.6h2.9l0.3,2.3h-19.3L1654.5,454.1z
			 M1681.5,333.8c7.1,0,13.4,0.8,19,2.4c5.6,1.7,10.4,4,14.3,7.2c3.9,3.1,7,7,9.1,11.4c2.1,4.5,3.1,9.6,3.1,15.3
			c0,6.3-1.5,12.1-4.5,17.5c-3,5.4-7.2,9.8-12.5,13.3c-5.3,3.4-11.4,5.5-18.1,6.3c2.5,1,5.5,3.4,8.9,7c3.4,3.6,6.3,7.1,8.6,10.6
			c3.9,5.2,7.3,9.8,10.5,13.5c3.1,3.8,6.1,7.4,9.1,10.9c3.1,3.4,6,6.5,8.6,9c2.6,2.5,5.5,4.5,8.6,5.9c3.1,1.4,6.6,2.1,10.7,2.1v2.3
			h-7c-8.2,0-15-1-20.4-3.1s-9.6-4.7-12.9-7.8c-3.3-3.1-6.1-6-8.6-8.9c-0.6-0.8-2-2.6-4.2-5.8c-2.2-3.1-4.5-6.4-7.1-10
			c-2.5-3.6-4.9-6.8-7-9.8c-2.1-2.9-3.4-4.7-3.8-5.2c-3-3.9-6.5-7.3-10.3-10.5c-3.9-3.1-8-4.6-12.3-4.6v-2.3c4.8,0.2,9.1,0.2,12.8,0
			c4.2-0.2,8.4-0.5,12.6-1c4.2-0.5,8.1-2.1,11.8-4.8c3.7-2.7,6.6-7.2,8.6-13.5c0.6-1.7,1-3.6,1.3-5.9c0.3-2.3,0.3-4.5,0.3-7
			c-0.2-4.2-1-7.9-2.4-11.2c-1.4-3.3-3.4-6.1-6-8.6c-2.6-2.4-5.8-4.3-9.3-5.6c-3.6-1.3-7.6-2.1-12.1-2.3c-7.1-0.3-13.2-0.3-18.4-0.3
			c-5.2,0.2-7.9,0.2-7.9,0c0-0.2-0.2-0.8-0.5-1.9c-0.3-1.1-1-2.8-1.7-5.1h29.1V333.8z"/>
		<path class="st0" d="M1818.9,308.2c2.4,0,5,0.2,7.8,0.4c2.8,0.3,5.5,0.7,8.1,1.2c2.6,0.5,5,1,7.2,1.6c2.2,0.5,3.8,1,5.1,1.7V338
			h-2c0-7.2-2.4-12.8-7.4-16.9c-5-4.1-10.9-6.2-18-6.2c-8.2,0-14.9,2.6-20,7.8s-7.6,11.2-7.6,18.1c0,2.9,0.6,6.2,1.9,10
			c1.3,3.8,3.7,7.3,7.1,10.7l44.2,40.9c4.5,4.2,7.5,8.6,9,13.5s2.3,9.4,2.3,13.9c0,12.4-3.8,22.5-11.4,30.3s-17.7,11.7-30.7,11.7
			c-3.6,0-7.9-0.3-12.7-1.1c-4.9-0.8-9.6-2.1-14.2-3.9c-4.5-1.8-8.4-4.3-11.4-7.3c-0.4-2.4-0.7-5.4-0.7-9c0-3.6,0.3-7.3,0.9-11.4
			c0.6-3.9,1.4-7.6,2.4-10.9h2c-0.8,7.6,0.3,14.3,2.9,20c2.7,5.7,6.6,10,11.8,12.9c5.2,3,11,4.2,17.6,3.9c8.2-0.4,15.3-3.3,21.2-8.6
			c5.9-5.3,8.9-12.5,8.9-21.4c0-4.4-0.8-8.3-2.3-11.8s-3.7-6.6-6.6-9.1l-43.1-39.9c-4.5-4.2-7.6-8.8-9.4-13.8s-2.7-9.7-2.7-14.1
			c0-6.3,1.5-12.3,4.5-18.2s7.4-10.6,13.4-14.2C1803.1,310,1810.3,308.2,1818.9,308.2z M1846.9,310.3v4.7h-17v-4.7H1846.9z"/>
		<path class="st0" d="M1965,330.6c10.5,0,20.4,1.7,29.5,5.1c9.2,3.4,17.3,8.2,24.3,14.5c7,6.3,12.4,13.7,16.2,22.4
			c3.9,8.6,5.9,18.2,5.9,28.7s-1.9,20-5.9,28.7c-3.9,8.6-9.3,16.1-16.2,22.4c-7,6.3-15,11.1-24.3,14.5c-9.2,3.4-19,5.1-29.5,5.1
			s-20.3-1.7-29.4-5.1c-9.2-3.4-17.2-8.2-24.1-14.5c-7-6.3-12.4-13.7-16.2-22.4c-3.9-8.6-5.9-18.2-5.9-28.7c0-10.5,1.9-20,5.9-28.7
			c3.9-8.6,9.3-16.1,16.2-22.4c7-6.3,15-11.1,24.1-14.5C1944.8,332.3,1954.5,330.6,1965,330.6z M1965,464.9
			c11.1,0,21.1-2.7,30.1-8.1c9-5.4,16.1-12.8,21.3-22.5c5.2-9.6,7.9-20.6,7.9-33.2c0-12.8-2.6-23.8-7.9-33.4
			c-5.2-9.5-12.3-16.9-21.3-22.4c-9-5.4-19-8.1-30.1-8.1c-10.9,0-20.9,2.7-29.9,8.1c-9,5.4-16.1,12.8-21.3,22.4
			c-5.2,9.5-7.9,20.6-7.9,33.4c0,12.6,2.6,23.7,7.9,33.2c5.2,9.6,12.3,17,21.3,22.5C1944.1,462.2,1954.1,464.9,1965,464.9z"/>
		<path class="st0" d="M2086.7,347.9h-0.4c-0.2-3.4-1.5-6.3-3.9-8.6s-5.6-3.4-9.3-3.4h-3.1v-2.3h19.7L2086.7,347.9z M2086.7,454.1
			l2.9,14.3h-19.7v-2.3h3.1c3.8,0,6.8-1.2,9.3-3.6c2.4-2.4,3.8-5.2,3.9-8.6L2086.7,454.1L2086.7,454.1z M2100.4,333.8v134.7h-14.2
			V333.8H2100.4z M2100,454.1h0.4c0.2,3.3,1.5,6.1,3.9,8.6c2.4,2.4,5.6,3.6,9.3,3.6h3.1v2.3h-19.7L2100,454.1z M2161.5,333.8v7H2100
			v-7H2161.5z M2150.9,397.7v6.7H2100v-6.7H2150.9z M2161.5,330.2v5.9l-25.9-2.3c3.1,0,6.5-0.2,9.9-0.5c3.4-0.3,6.6-0.9,9.5-1.5
			C2158,331.1,2160.1,330.6,2161.5,330.2z M2150.9,385.4v12.8h-11.7v-0.4c3.3,0,5.7-1,7.1-2.8c1.4-1.8,2.1-4.1,2.1-6.6v-2.9H2150.9z
			 M2150.9,404v12.8h-2.4v-2.9c0-2.5-0.7-4.7-2.1-6.6c-1.4-1.8-3.8-2.8-7.1-2.8V404H2150.9z M2161.5,340.1v15.5h-2.4v-3.4
			c0-3.1-1-5.9-3.1-8.1c-2-2.3-4.7-3.4-8.2-3.4v-0.7h13.7V340.1z"/>
		<path class="st0" d="M2187.3,329.9c1.3,0.4,3.4,1,6.2,1.6c2.8,0.6,5.9,1,9.3,1.5c3.4,0.3,6.6,0.5,9.7,0.5l-25.2,2.3L2187.3,329.9
			L2187.3,329.9z M2310.5,333.5v6.7h-123.3v-6.7H2310.5z M2201,339.8v0.4c-3.4,0.2-6.2,1.3-8.2,3.5s-3.1,4.8-3.1,7.9v3.6h-2.4v-15.5
			H2201L2201,339.8z M2242,454.1v14.3h-16.4v-2.3c0.2,0,1,0,2.7,0c3.6,0,6.6-1.2,9.2-3.6c2.5-2.4,3.9-5.2,4-8.6L2242,454.1
			L2242,454.1z M2256.2,334.4v134h-14.6v-134H2256.2z M2255.6,454.1h0.7c0.2,3.3,1.5,6.1,4,8.6c2.5,2.4,5.6,3.6,9.2,3.6h2.4v2.3
			h-16.4L2255.6,454.1L2255.6,454.1z M2310.5,329.9v5.9l-25.2-2.3c3,0,6.2-0.2,9.5-0.5c3.4-0.3,6.5-0.9,9.3-1.5
			C2307.1,330.9,2309.2,330.4,2310.5,329.9z M2310.5,339.8v15.5h-2.4v-3.6c0-3.1-1-5.8-3.1-7.9s-4.7-3.3-8.2-3.5v-0.4L2310.5,339.8
			L2310.5,339.8z"/>
	</g>
</g>
<g id="NicePng_x5F_book-logo-png_x5F_7936442_xA0_Imagem_1_">
	<g>
		<path class="st1" d="M768.9,263.8c2,0,4.1,0,6.1,0c1,0.3,1.9,0.6,3,0.7c31.5,3.9,61.1,14.2,89.2,29c4.8,2.5,6.8,5.4,6.8,11.1
			c-0.2,59.9-0.2,119.9-0.2,179.9c0,1.1,0,2.4,0,3.5c0,3.1-1.4,3.9-4.1,2.4c-0.5-0.3-1-0.5-1.6-0.8c-29.7-15.5-61-26-94.5-29.2
			c-3.1-0.3-4.8-1.6-4.7-4.9c0.1-1.7,0-3.5,0-5.2C768.9,388.1,768.9,325.9,768.9,263.8z"/>
		<path class="st1" d="M977.7,263.8c2,0,4.1,0,6.1,0c0,63.8,0.1,127.5,0.2,191.3c0,3.8-1.8,5-5.2,5.3c-33,3.3-63.9,13.5-93.3,28.8
			c-5.4,2.9-5.9,2.7-5.9-3.2c0-61.2,0-122.3-0.1-183.5c0-4.1,1.4-6.4,4.9-8.2c23.6-12.8,48.4-22.1,74.8-27.3
			C965.4,265.9,971.6,264.8,977.7,263.8z"/>
		<path class="st1" d="M734.8,307.5c11.5-1.9,11.5-1.9,11.5,9.7c0,53.9,0,107.7,0,161.6c0,6.8,0.1,6.6,6.8,6.4
			c27.2-1.2,53.7,2.4,79.8,9.4c13.2,3.6,26.1,8.1,38.6,13.7c3.1,1.4,5.9,1.6,9.2,0.2c27.7-12.1,56.5-19.8,86.7-22.5
			c10.7-1,21.5-1.8,32.2-0.8c6.3,0.6,6.6,0.3,6.6-6.3c0-53,0-106,0-159c0-2,0-4.1,0-6.1c0-7.5,0.6-8,8-6.9c1.1,0.2,2.3,0.4,3.4,0.6
			c0,65.8,0,131.7,0,197.4c-2.9,1.5-5.9,2-9.3,1.6c-29.1-3.7-58.3-4.1-87.3,0.3c-12.9,2-25.8,4.4-38,9.3c-4.4,0-8.7,0-13.1,0
			c-1.5-0.5-3-1.1-4.5-1.7c-39.6-12.2-80-12.9-120.7-8.2c-3.8,0.4-7.3,0.3-10.1-2.4C734.8,438.5,734.8,373,734.8,307.5z"/>
		<path class="st1" d="M752.2,382.6c0-30.1,0-60.3,0-90.4c0-6.2,3.2-8.5,9.2-6.6c1.5,0.5,2.1,1.5,2.2,2.9c0.1,1.7,0.2,3.5,0.2,5.2
			c0,54.6,0,109.2,0,163.8c0,7.3,0.2,7.3,7.5,7.9c26.8,2.4,52.3,9.5,76.9,20.4c7.1,3.1,14.1,6.3,20.7,10.3c5.2,3.1,9.9,3.1,15.1,0.1
			c27-14.9,55.6-25.2,86.3-29.5c4.3-0.6,8.6-1,13-1.4c5.9-0.5,6.4-1,6.4-6.8c0-53.5,0-106.8,0-160.3c0-1.9,0-3.8,0-5.7
			c0-7,1.4-8.2,8.2-7.1c1.8,0.3,3,1.1,3.1,3c0.1,1.6,0.2,3.2,0.2,4.8c0,59.6,0,119.1,0,178.7c0,7.7,0,7.8-7.4,7.6
			c-38.4-0.7-75.2,6.9-110.5,21.8c-4.8,2-9.3,1.7-13.9-0.2c-24.8-10.5-50.7-17.3-77.5-20.3c-11.3-1.2-22.6-1.6-34-1.4
			c-5.3,0.1-5.7-0.3-5.8-5.8C752.1,443.5,752.2,413,752.2,382.6z"/>
	</g>
</g>
</svg>
